<?xml version="1.0" encoding="UTF-8"?>
<svg id="Layer_1" xmlns="http://www.w3.org/2000/svg" version="1.1" viewBox="0 0 22 22">
  <!-- Generator: Adobe Illustrator 29.2.1, SVG Export Plug-In . SVG Version: 2.1.0 Build 116)  -->
  <defs>
    <style>
      .st0 {
        fill: #006b52;
        fill-rule: evenodd;
      }
    </style>
  </defs>
  <path class="st0" d="M11.7,1.8c-.4-.4-1-.4-1.4,0L1.8,10.3c-.4.4-.4,1,0,1.4l8.5,8.5c.4.4,1,.4,1.4,0l8.5-8.5c.4-.4.4-1,0-1.4L11.7,1.8ZM1.1,12.4c-.8-.8-.8-2,0-2.8L9.6,1.1c.8-.8,2-.8,2.8,0l8.5,8.5c.8.8.8,2,0,2.8l-8.5,8.5c-.8.8-2,.8-2.8,0L1.1,12.4ZM7.5,10.5c-.3,0-.5.2-.5.5s.2.5.5.5h5.8s-2,2-2,2c-.2.2-.2.5,0,.7s.5.2.7,0l2.8-2.8c.2-.2.2-.5,0-.7l-2.8-2.8c-.2-.2-.5-.2-.7,0s-.2.5,0,.7l2,2h-5.8Z"/>
</svg>