<?xml version="1.0" encoding="UTF-8"?>
<svg id="Layer_1" data-name="Layer 1" xmlns="http://www.w3.org/2000/svg" viewBox="0 0 28 28">
  <defs>
    <style>
      .cls-1 {
        fill: #fff;
      }
    </style>
  </defs>
  <path class="cls-1" d="M14-.04C6.27-.04,0,6.23,0,13.96s6.27,14,14,14,14-6.27,14-14S21.73-.04,14-.04ZM14.01,27.57c-.16,0-.31-.02-.47-.02h.93c-.16,0-.31.02-.47.02ZM17.76,27.03c0-2.22-.01-10.93,0-11.57.01-.73.11-.83.7-1.14.58-.31,2.7-1.43,2.79-1.48l1.51,2.61,1.31-4.89-4.89-1.31,1.35,2.33c-.08.04-1.16.61-2.74,1.54-1.65.96-1.57,1.55-1.57,2.34v11.91c-.46.08-.93.13-1.41.15V8.99h2.79l-3.58-3.58-3.58,3.58h2.84v18.54c-.53-.03-1.05-.09-1.56-.17v-11.87c0-.78.08-1.37-1.57-2.34-1.39-.82-2.39-1.35-2.67-1.5l1.38-2.39-4.89,1.31,1.31,4.89,1.47-2.55c.39.21,2.19,1.16,2.72,1.44.59.31.69.4.7,1.14.01.64,0,9.23,0,11.52C4.55,25.35.45,20.16.45,14.01.45,6.52,6.52.45,14.01.45s13.56,6.07,13.56,13.56c0,6.19-4.15,11.39-9.81,13.02Z"/>
</svg>