<?xml version="1.0" encoding="UTF-8"?>
<svg id="Layer_1" data-name="Layer 1" xmlns="http://www.w3.org/2000/svg" viewBox="0 0 28 28">
  <defs>
    <style>
      .cls-1 {
        fill: #fff;
      }
    </style>
  </defs>
  <path class="cls-1" d="M13.53,27.98c.16,0,.32.02.48.02s.32-.02.48-.02h-.96Z"/>
  <path class="cls-1" d="M14.01.02C6.29.02.02,6.29.02,14.01.02,20.36,4.25,25.71,10.04,27.42c0-2.36.01-11.23,0-11.89-.01-.76-.12-.85-.73-1.17-.54-.29-2.4-1.27-2.8-1.48l-1.52,2.63-1.35-5.05,5.05-1.35-1.43,2.47c.29.15,1.32.7,2.76,1.55,1.7.99,1.62,1.6,1.62,2.41v12.25c.53.09,1.07.15,1.61.18V8.83h-2.93l3.7-3.7,3.7,3.7h-2.88v19.13c.49-.03.98-.08,1.46-.16v-12.29c0-.81-.09-1.42,1.62-2.41,1.63-.96,2.74-1.54,2.83-1.58l-1.39-2.41,5.05,1.35-1.35,5.05-1.56-2.7c-.09.05-2.28,1.21-2.87,1.52-.61.32-.71.42-.73,1.17-.01.66,0,9.65,0,11.94,5.84-1.68,10.12-7.05,10.12-13.44C28,6.29,21.74.02,14.01.02Z"/>
</svg>