<?xml version="1.0" encoding="UTF-8"?>
<svg id="Layer_1" xmlns="http://www.w3.org/2000/svg" version="1.1" viewBox="0 0 28 28">
  <!-- Generator: Adobe Illustrator 29.2.1, SVG Export Plug-In . SVG Version: 2.1.0 Build 116)  -->
  <defs>
    <style>
      .st0 {
        fill: #fff;
      }
    </style>
  </defs>
  <path class="st0" d="M-114,14c0,6.6-5.4,12-12,12s-12-5.4-12-12,5.4-12,12-12,12,5.4,12,12ZM-126.1,4.8c-5.1,0-9.2,4.1-9.2,9.2s4.1,9.2,9.2,9.2,9.2-4.1,9.2-9.2-4.1-9.2-9.2-9.2ZM-126.1,6c-4.4,0-8,3.6-8,8s3.6,8,8,8,8-3.6,8-8-3.6-8-8-8ZM-121.1,14c0,2.7-2.2,4.9-4.9,4.9s-4.9-2.2-4.9-4.9,2.2-4.9,4.9-4.9,4.9,2.2,4.9,4.9ZM-122.8,14c0,1.8-1.4,3.2-3.2,3.2s-3.2-1.4-3.2-3.2,1.4-3.2,3.2-3.2,3.2,1.4,3.2,3.2Z"/>
  <g>
    <path class="st0" d="M-82.5,28c.2,0,.3,0,.5,0s.3,0,.5,0h-1Z"/>
    <path class="st0" d="M-82,0c-7.7,0-14,6.3-14,14s4.2,11.7,10,13.4c0-2.4,0-11.2,0-11.9,0-.8-.1-.9-.7-1.2-.5-.3-2.4-1.3-2.8-1.5l-1.5,2.6-1.4-5,5-1.4-1.4,2.5c.3.2,1.3.7,2.8,1.5,1.7,1,1.6,1.6,1.6,2.4v12.2c.5,0,1.1.1,1.6.2V8.8h-2.9l3.7-3.7,3.7,3.7h-2.9v19.1c.5,0,1,0,1.5-.2v-12.3c0-.8,0-1.4,1.6-2.4,1.6-1,2.7-1.5,2.8-1.6l-1.4-2.4,5,1.4-1.4,5-1.6-2.7c0,0-2.3,1.2-2.9,1.5-.6.3-.7.4-.7,1.2,0,.7,0,9.6,0,11.9,5.8-1.7,10.1-7.1,10.1-13.4S-74.3,0-82,0Z"/>
  </g>
  <path class="st0" d="M-34,0c-7.7,0-14,6.3-14,14s6.3,14,14,14,14-6.3,14-14S-26.3,0-34,0ZM-34,27.6c-.2,0-.3,0-.5,0h.9c-.2,0-.3,0-.5,0ZM-30.2,27c0-2.2,0-10.9,0-11.6,0-.7.1-.8.7-1.1.6-.3,2.7-1.4,2.8-1.5l1.5,2.6,1.3-4.9-4.9-1.3,1.3,2.3c0,0-1.2.6-2.7,1.5-1.6,1-1.6,1.6-1.6,2.3v11.9c-.5,0-.9.1-1.4.2V9h2.8l-3.6-3.6-3.6,3.6h2.8v18.5c-.5,0-1.1,0-1.6-.2v-11.9c0-.8,0-1.4-1.6-2.3-1.4-.8-2.4-1.4-2.7-1.5l1.4-2.4-4.9,1.3,1.3,4.9,1.5-2.6c.4.2,2.2,1.2,2.7,1.4.6.3.7.4.7,1.1,0,.6,0,9.2,0,11.5-5.6-1.7-9.7-6.8-9.7-13S-41.5.5-34,.5s13.6,6.1,13.6,13.6-4.1,11.4-9.8,13Z"/>
  <path class="st0" d="M14.2,7.4c0-.3.2-.5.5-.5h7c.3,0,.5.2.5.5v1c0,.3-.2.5-.5.5h-7c-.3,0-.5-.2-.5-.5v-1ZM9.2,5.9c-1.1,0-2,.9-2,2v2c0,1.1.9,2,2,2h2c1.1,0,2-.9,2-2v-2c0-1.1-.9-2-2-2h-2ZM9.2,13.9c-1.1,0-2,.9-2,2v2c0,1.1.9,2,2,2h2c1.1,0,2-.9,2-2v-2c0-1.1-.9-2-2-2h-2ZM10,10.3c-.2.2-.5.2-.7,0,0,0,0,0,0,0l-1-1c-.2-.2-.2-.5,0-.7.2-.2.5-.2.7,0l.6.6,1.6-1.6c.2-.2.5-.2.7,0,.2.2.2.5,0,.7l-2,2ZM10,18.3c-.2.2-.5.2-.7,0,0,0,0,0,0,0l-1-1c-.2-.2-.2-.5,0-.7.2-.2.5-.2.7,0h0l.6.6,1.6-1.6c.2-.2.5-.2.7,0s.2.5,0,.7l-2,2ZM14.2,15.4c0-.3.2-.5.5-.5h7c.3,0,.5.2.5.5v1c0,.3-.2.5-.5.5h-7c-.3,0-.5-.2-.5-.5v-1ZM14.2,10.4c0-.3.2-.5.5-.5h5c.3,0,.5.2.5.5s-.2.5-.5.5h-5c-.3,0-.5-.2-.5-.5M14.2,18.4c0-.3.2-.5.5-.5h5c.3,0,.5.2.5.5s-.2.5-.5.5h-5c-.3,0-.5-.2-.5-.5"/>
</svg>