<?xml version="1.0" encoding="UTF-8"?>
<svg id="Layer_1" data-name="Layer 1" xmlns="http://www.w3.org/2000/svg" viewBox="0 0 32 27">
  <defs>
    <style>
      .cls-1 {
        stroke-width: .4px;
      }

      .cls-1, .cls-2, .cls-3 {
        fill: #fff;
      }

      .cls-1, .cls-3 {
        stroke: #fff;
        stroke-miterlimit: 10;
      }

      .cls-3 {
        stroke-width: .1px;
      }
    </style>
  </defs>
  <line class="cls-1" x1="14.3" y1=".85" x2="14.5" y2="25.44"/>
  <line class="cls-1" x1="30.85" y1="22.75" x2="1.23" y2="22.98"/>
  <line class="cls-1" x1="6.61" y1="15.13" x2="16.53" y2="24.9"/>
  <line class="cls-1" x1="23.82" y1="13.39" x2="12.48" y2="24.91"/>
  <g>
    <circle class="cls-2" cx="14.86" cy="22.66" r="3.89"/>
    <path class="cls-2" d="M17.65,25.4c-3.98,3.87-9.09-1.57-5.66-5.57,3.83-3.88,9.5,1.61,5.66,5.57h0ZM17.61,25.37c3.17-3.57-1.87-8.57-5.43-5.34-3.57,3.49,1.99,8.61,5.43,5.34h0Z"/>
  </g>
  <g>
    <circle class="cls-2" cx="23.34" cy="13.89" r="1.13"/>
    <path class="cls-2" d="M24.16,14.69c-1.15,1.17-2.67-.48-1.66-1.64,1.13-1.18,2.83.5,1.66,1.64h0ZM24.14,14.67c.91-1.01-.59-2.46-1.57-1.54-1.04.96.58,2.48,1.57,1.54h0Z"/>
  </g>
  <g>
    <circle class="cls-2" cx="11.49" cy="16.11" r="1.13"/>
    <path class="cls-2" d="M12.3,16.91c-1.15,1.17-2.67-.48-1.66-1.63,1.13-1.18,2.82.5,1.66,1.63h0ZM12.29,16.9c.91-1.01-.59-2.46-1.57-1.54-1.04.96.58,2.48,1.57,1.54h0Z"/>
  </g>
  <circle class="cls-3" cx="6.62" cy="15.12" r=".8"/>
  <circle class="cls-3" cx="18.04" cy="12.75" r=".8"/>
  <g>
    <circle class="cls-2" cx="14.31" cy="2.1" r="1.63"/>
    <path class="cls-2" d="M15.96,2.08c0,2.39-3.17,2.25-3.36.03-.06-2.33,3.37-2.42,3.36-.03h0ZM15.93,2.08c-.13-1.96-3.09-1.9-3.17.03-.09,2.06,3.14,1.9,3.17-.03h0Z"/>
  </g>
  <g>
    <circle class="cls-2" cx="30.07" cy="22.8" r="1.63"/>
    <path class="cls-2" d="M30.09,24.45c-2.39,0-2.25-3.17-.03-3.36,2.33-.06,2.42,3.37.03,3.36h0ZM30.09,24.42c1.96-.13,1.9-3.09-.03-3.17-2.06-.09-1.9,3.14.03,3.17h0Z"/>
  </g>
  <g>
    <circle class="cls-2" cx="23.25" cy="9.18" r="1.63"/>
    <path class="cls-2" d="M21.6,9.19c0-2.39,3.17-2.25,3.36-.03.06,2.33-3.37,2.42-3.36.03h0ZM21.63,9.19c.13,1.96,3.09,1.91,3.17-.03.09-2.06-3.14-1.9-3.17.03h0Z"/>
  </g>
  <g>
    <circle class="cls-2" cx="1.86" cy="22.98" r="1.63"/>
    <path class="cls-2" d="M1.84,21.33c2.39,0,2.25,3.17.03,3.36-2.33.06-2.42-3.37-.03-3.36h0ZM1.84,21.36c-1.96.13-1.9,3.09.03,3.17,2.06.09,1.9-3.14-.03-3.17h0Z"/>
  </g>
</svg>