<?xml version="1.0" encoding="UTF-8"?>
<svg id="Layer_1" data-name="Layer 1" xmlns="http://www.w3.org/2000/svg" viewBox="0 0 32 32">
  <defs>
    <style>
      .cls-1 {
        stroke-width: .39px;
      }

      .cls-1, .cls-2 {
        stroke: #0e2445;
        stroke-miterlimit: 10;
      }

      .cls-1, .cls-2, .cls-3 {
        fill: #0e2445;
      }

      .cls-2 {
        stroke-width: .1px;
      }
    </style>
  </defs>
  <line class="cls-1" x1="14.37" y1="5.23" x2="14.56" y2="29.51"/>
  <line class="cls-1" x1="30.71" y1="26.85" x2="1.47" y2="27.08"/>
  <line class="cls-1" x1="6.77" y1="19.33" x2="16.57" y2="28.97"/>
  <line class="cls-1" x1="23.77" y1="17.61" x2="12.57" y2="28.98"/>
  <g>
    <circle class="cls-3" cx="14.92" cy="26.76" r="3.84"/>
    <path class="cls-3" d="M17.68,29.47c-3.93,3.82-8.97-1.55-5.59-5.5,3.79-3.83,9.39,1.6,5.59,5.5h0ZM17.64,29.44c3.13-3.53-1.84-8.46-5.36-5.28-3.52,3.45,1.96,8.5,5.36,5.28h0Z"/>
  </g>
  <g>
    <circle class="cls-3" cx="23.3" cy="18.1" r="1.12"/>
    <path class="cls-3" d="M24.1,18.89c-1.14,1.16-2.64-.47-1.64-1.61,1.12-1.16,2.79.49,1.64,1.61h0ZM24.09,18.88c.9-1-.59-2.43-1.55-1.53-1.02.95.57,2.45,1.55,1.53h0Z"/>
  </g>
  <g>
    <circle class="cls-3" cx="11.59" cy="20.29" r="1.12"/>
    <path class="cls-3" d="M12.4,21.09c-1.13,1.16-2.64-.47-1.64-1.61,1.12-1.16,2.79.49,1.64,1.61h0ZM12.38,21.07c.9-1-.59-2.43-1.55-1.53-1.02.95.57,2.45,1.55,1.53h0Z"/>
  </g>
  <circle class="cls-2" cx="6.79" cy="19.31" r=".79"/>
  <circle class="cls-2" cx="18.06" cy="16.97" r=".79"/>
  <g>
    <circle class="cls-3" cx="14.38" cy="6.46" r="1.61"/>
    <path class="cls-3" d="M16.01,6.45c0,2.36-3.13,2.22-3.32.03-.06-2.3,3.33-2.39,3.32-.03h0ZM15.98,6.45c-.12-1.93-3.05-1.88-3.13.02-.09,2.01,3.08,1.91,3.13-.02h0Z"/>
  </g>
  <g>
    <circle class="cls-3" cx="29.95" cy="26.91" r="1.61"/>
    <path class="cls-3" d="M29.96,28.53c-2.36,0-2.22-3.13-.03-3.32,2.3-.06,2.39,3.33.03,3.32h0ZM29.96,28.5c1.93-.12,1.88-3.05-.02-3.13-2.01-.09-1.91,3.08.02,3.13h0Z"/>
  </g>
  <g>
    <circle class="cls-3" cx="23.21" cy="13.45" r="1.61"/>
    <path class="cls-3" d="M21.58,13.46c0-2.36,3.13-2.22,3.32-.03.06,2.3-3.33,2.39-3.32.03h0ZM21.61,13.46c.12,1.93,3.05,1.88,3.13-.02.09-2.01-3.08-1.91-3.13.02h0Z"/>
  </g>
  <g>
    <circle class="cls-3" cx="2.08" cy="27.08" r="1.61"/>
    <path class="cls-3" d="M2.07,25.45c2.36,0,2.22,3.13.03,3.32-2.3.06-2.39-3.33-.03-3.32h0ZM2.07,25.48c-1.93.12-1.88,3.05.02,3.13,2.01.09,1.91-3.08-.02-3.13h0Z"/>
  </g>
</svg>