<?xml version="1.0" encoding="UTF-8"?>
<svg id="Layer_1" xmlns="http://www.w3.org/2000/svg" version="1.1" viewBox="0 0 16 16">
  <!-- Generator: Adobe Illustrator 29.2.1, SVG Export Plug-In . SVG Version: 2.1.0 Build 116)  -->
  <defs>
    <style>
      .st0 {
        fill: #fff;
      }
    </style>
  </defs>
  <path class="st0" d="M7,2.5c0-.3.2-.5.5-.5h7c.3,0,.5.2.5.5v1c0,.3-.2.5-.5.5h-7c-.3,0-.5-.2-.5-.5v-1ZM2,1C.9,1,0,1.9,0,3v2c0,1.1.9,2,2,2h2c1.1,0,2-.9,2-2v-2c0-1.1-.9-2-2-2h-2ZM2,9c-1.1,0-2,.9-2,2v2c0,1.1.9,2,2,2h2c1.1,0,2-.9,2-2v-2c0-1.1-.9-2-2-2h-2ZM2.9,5.4c-.2.2-.5.2-.7,0,0,0,0,0,0,0l-1-1c-.2-.2-.2-.5,0-.7.2-.2.5-.2.7,0l.6.6,1.6-1.6c.2-.2.5-.2.7,0,.2.2.2.5,0,.7l-2,2ZM2.9,13.4c-.2.2-.5.2-.7,0,0,0,0,0,0,0l-1-1c-.2-.2-.2-.5,0-.7.2-.2.5-.2.7,0h0l.6.6,1.6-1.6c.2-.2.5-.2.7,0s.2.5,0,.7l-2,2ZM7,10.5c0-.3.2-.5.5-.5h7c.3,0,.5.2.5.5v1c0,.3-.2.5-.5.5h-7c-.3,0-.5-.2-.5-.5v-1ZM7,5.5c0-.3.2-.5.5-.5h5c.3,0,.5.2.5.5s-.2.5-.5.5h-5c-.3,0-.5-.2-.5-.5M7,13.5c0-.3.2-.5.5-.5h5c.3,0,.5.2.5.5s-.2.5-.5.5h-5c-.3,0-.5-.2-.5-.5"/>
</svg>